<svg xmlns="http://www.w3.org/2000/svg" xmlns:xlink="http://www.w3.org/1999/xlink" xmlns:inkscape="http://www.inkscape.org/namespaces/inkscape" version="1.1" width="1920" height="1080" viewBox="0 0 1920 1080">
<defs>
<clipPath id="clip_1">
<path transform="matrix(1,0,0,-1,0,1080)" d="M0 1080H1920V0H0Z"/>
</clipPath>
</defs>
<g inkscape:groupmode="layer" inkscape:label="Layer 1">
<g clip-path="url(#clip_1)">
<path transform="matrix(1,0,0,-1,613.8578,715.9282)" d="M0 0C-.266 7.101-6.346 12.603-13.445 12.603H-112.805C-119.905 12.603-125.497 18.239-125.497 25.072-125.497 31.107-121.326 36.123-115.733 37.365L-26.048 57.779C-17.306 59.642-9.585 64.436-4.172 71.313 1.464 78.367 4.349 86.888 4.349 95.631 4.349 117.286-13.135 134.771-34.568 134.771H-134.239C-141.65 134.771-147.553 128.557-147.374 121.103-147.197 113.957-141.028 108.321-133.84 108.321H-34.568C-27.691 108.321-22.056 102.731-22.056 95.631-22.056 89.817-26.048 84.803-31.863 83.56L-121.548 63.191C-130.068 61.284-137.789 56.313-143.425 49.436-148.84 42.557-151.945 34.037-151.945 25.072-151.945 3.638-134.46-13.846-112.805-13.846H-13.135C-5.679-13.846 .222-7.766 0 0"/>
<path transform="matrix(1,0,0,-1,709.9782,703.326)" d="M0 0C-33.726 0-54.538 18.327-54.538 47.882-54.538 77.214-33.726 95.72 0 95.72H10.427C43.932 95.72 64.922 77.214 64.922 47.882 64.922 18.327 43.932 0 10.427 0ZM70.16-4.793C76.994 1.863 82.407 9.984 85.957 19.126 89.508 28.091 91.371 37.675 91.371 47.882 91.371 57.868 89.508 67.629 85.957 76.372 82.407 85.557 76.994 93.634 70.16 100.513 55.56 114.669 34.968 122.168 10.427 122.168H0C-24.541 122.168-45.176 114.669-59.731 100.513-66.61 93.634-72.023 85.557-75.752 76.372-79.079 67.629-80.943 57.868-80.943 47.882-80.943 37.675-79.079 28.091-75.752 19.126-72.023 9.984-66.61 1.863-59.731-4.793-45.176-18.949-24.541-26.448 0-26.448H10.427C34.968-26.448 55.56-18.949 70.16-4.793"/>
<path transform="matrix(1,0,0,-1,930.0411,725.6031)" d="M0 0C2.53-2.706 6.035-4.172 9.807-4.172H31.02C38.476-4.172 44.599 1.909 44.332 9.63 44.111 16.729 37.986 22.276 30.841 22.276H23.077C18.329 22.276 13.801 24.275 10.606 27.778L-5.591 45.397C3.15 47.439 11.273 52.053 17.707 58.489 27.292 68.072 32.484 80.543 32.484 94.079 32.484 107.613 27.292 120.084 17.707 129.67 8.121 139.032-4.349 144.444-17.883 144.444H-110.72C-118.085 144.444-123.988 138.232-123.811 130.778-123.632 123.632-117.465 117.996-110.32 117.996H-17.883C-3.993 117.996 7.323 105.881 5.946 91.726 4.748 79.479-5.946 70.337-18.239 70.337H-110.497C-117.819 70.337-123.811 64.345-123.811 57.024V9.187C-123.811 1.686-117.996-4.172-110.72-4.172-103.441-4.172-97.406 1.686-97.406 9.187V43.712H-40.383Z"/>
<path transform="matrix(1,0,0,-1,1143.4929,595.75808)" d="M0 0C.799 7.856-5.547 14.6-13.225 14.6H-143.114C-150.481 14.6-156.384 8.388-156.205 .934-156.028-6.212-149.904-11.848-142.716-11.848H-13.447C-6.657-11.848-.665-6.789 0 0M0-60.926C.754-53.074-5.547-46.595-13.225-46.595H-143.114C-150.481-46.595-156.384-52.541-156.205-59.952-156.073-67.274-149.816-72.998-142.494-72.998H-13.713C-6.745-72.998-.622-67.85 0-60.926M.088-120.216C-.177-113.115-6.301-107.568-13.447-107.568H-142.803C-149.904-107.568-155.984-113.07-156.205-120.171-156.472-127.935-150.569-134.016-143.114-134.016H-13.225C-5.814-134.016 .311-127.935 .088-120.216"/>
<path transform="matrix(1,0,0,-1,1309.8163,715.97378)" d="M0 0C-.222 7.101-6.346 12.648-13.49 12.648H-112.14V121.503C-112.14 129.225-118.929 135.526-126.74 134.772-133.529 134.107-138.588 128.072-138.588 121.282V-.441C-138.588-7.944-132.775-13.801-125.454-13.801H-13.313C-5.858-13.801 .266-7.72 0 0"/>
<path transform="matrix(1,0,0,-1,1458.0786,715.97378)" d="M0 0C-.222 7.101-6.346 12.648-13.49 12.648H-112.184V121.503C-112.184 129.225-118.929 135.526-126.784 134.772-133.574 134.107-138.588 128.072-138.588 121.282V-.441C-138.588-7.944-132.775-13.801-125.497-13.801H-13.313C-5.858-13.801 .266-7.72 0 0"/>
<path transform="matrix(1,0,0,-1,1093.4475,252.63178)" d="M0 0V-115.774C0-119.795-2.153-123.508-5.642-125.505L-138.7-201.681C-139.02-201.864-139.351-202.034-139.688-202.186-143.751-204.007-147.402-205.229-150.639-205.851-154.015-206.499-156.244-206.28-157.338-205.19-158.426-204.102-158.44-202.026-157.36-198.952-156.279-195.887-154.575-192.132-152.24-187.69L-91.598-82.06C-85.75-71.857-83.03-61.093-83.437-49.778-83.843-38.462-87.971-28.346-95.805-19.431-103.019-11.027-112.252-6.218-123.511-5.012-134.769-3.809-146.967-6.206-160.092-12.199L-250.52-58.965C-257.983-62.824-266.884-57.408-266.884-49.005V0C-266.884 6.193-261.864 11.213-255.671 11.213H-11.214C-5.02 11.213 0 6.193 0 0" fill="#db3e43"/>
<path transform="matrix(1,0,0,-1,971.2714,490.4944)" d="M0 0 105.392 60.336C112.867 64.614 122.176 59.218 122.176 50.605V-6.594C122.176-12.788 117.155-17.808 110.964-17.808H-133.495C-139.687-17.808-144.707-12.788-144.707-6.594V118.881C-144.707 123.072-142.369 126.914-138.646 128.84L-21.394 189.48C-17.292 191.356-13.668 192.76-10.53 193.7-7.386 194.635-4.846 194.057-2.896 191.969-1.487 190.621-.981 188.422-1.365 185.366-1.755 182.306-2.816 179.193-4.54 176.022L-64.414 70.031C-67.602 64.404-70.256 58.926-72.376 53.587-74.501 48.25-75.752 42.96-76.136 37.717-76.521 32.475-75.791 27.198-73.958 21.882-72.127 16.561-68.834 11.31-64.086 6.13-56.921-1.326-47.726-5.72-36.508-7.044-25.442-8.36-13.596-6.181-.99-.507-.653-.354-.322-.183 0 0" fill="#db3e43"/>
</g>
<text xml:space="preserve" transform="matrix(1 0 -0 1 0 1080)" font-size="62.2071" font-family="TYCCVH+Montserrat-SemiBold" font-weight="bold"><tspan y="-257.9014" x="645.7642 689.99349 715.4984 754.1912 819.6953 837.67318 880.0362 945.5403 962.7095 1010.0491 1047.8088 1074.1847 1116.1744 1172.2853 1210.045 1235.5499">Premium Bathware</tspan></text>
</g>
</svg>
